<?xml version="1.0" ?><!-- Uploaded to: SVG Repo, www.svgrepo.com, Generator: SVG Repo Mixer Tools -->
<svg fill="#000000" width="800px" height="800px" viewBox="0 0 32 32" data-name="Layer 1" id="Layer_1" xmlns="http://www.w3.org/2000/svg"><title/><path d="M25,8H17V4h3a1,1,0,0,0,0-2H16a1,1,0,0,0-1,1V8H7a1,1,0,0,0,0,2H8.09L10,29.1a1,1,0,0,0,1,.9H21a1,1,0,0,0,1-.9l.74-7.43.12-1.17L23.91,10H25a1,1,0,0,0,0-2Zm-3.51,6H17a1,1,0,0,0,0,2h4.29l-.4,4H18a1,1,0,0,0,0,2h2.69l-.6,6H11.91l-1.8-18H21.89Z"/></svg>