<?xml version="1.0" ?>
<!-- Uploaded to: SVG Repo, www.svgrepo.com, Generator: SVG Repo Mixer Tools -->
<svg width="800px" height="800px" viewBox="0 0 512 512" baseProfile="tiny" overflow="visible" version="1.1" xml:space="preserve" xmlns="http://www.w3.org/2000/svg" xmlns:xlink="http://www.w3.org/1999/xlink">
<g id="Layer_1"/>
<g id="Layer_2"/>
<g id="Layer_3"/>
<g id="Layer_4"/>
<g id="Layer_5"/>
<g id="Layer_6"/>
<g id="Layer_7"/>
<g id="Layer_8"/>
<g id="Layer_9"/>
<g id="Layer_10"/>
<g id="Layer_11"/>
<g id="Layer_12"/>
<g id="Layer_13"/>
<g id="Layer_14"/>
<g id="Layer_15"/>
<g id="Layer_16"/>
<g id="Layer_17"/>
<g id="Layer_18"/>
<g id="Layer_19"/>
<g id="Layer_20"/>
<g id="Layer_21"/>
<g id="Layer_22"/>
<g id="Layer_23"/>
<g id="Layer_24"/>
<g id="Layer_25"/>
<g id="Layer_26"/>
<g id="Layer_27"/>
<g id="Layer_28"/>
<g id="Layer_29"/>
<g id="Layer_30"/>
<g id="Layer_31"/>
<g id="Layer_32"/>
<g id="Layer_33"/>
<g id="Layer_34"/>
<g id="Layer_35"/>
<g id="Layer_36"/>
<g id="Layer_37"/>
<g id="Layer_38"/>
<g id="Layer_39"/>
<g id="Layer_40"/>
<g id="Layer_41"/>
<g id="Layer_42"/>
<g id="Layer_43"/>
<g id="Layer_44"/>
<g id="Layer_45"/>
<g id="Layer_46"/>
<g id="Layer_47"/>
<g id="Layer_48"/>
<g id="Layer_49"/>
<g id="Layer_50">
<g>
<path d="M145.801,82.463c-3.532-0.112-5.745-3.791-4.343-7.034c3.923-9.074,3.708-19.832-1.515-29.101    c-8.807-15.63-28.516-21.103-44.021-12.225C85.415,40.12,79.536,51.184,79.578,62.556c0.015,3.889-4.131,6.263-7.524,4.361    c-9.521-5.339-21.492-5.692-31.659,0.13c-15.505,8.879-20.934,28.747-12.127,44.377c6.484,11.507,18.875,17.502,31.148,16.323    c3.507-0.337,6.233,2.967,5.262,6.353c-2.333,8.132-1.538,17.166,2.938,25.109c8.807,15.63,28.516,21.103,44.021,12.225    c8.5-4.868,13.969-13.039,15.725-22.003c0.596-3.04,3.723-4.811,6.64-3.767c8.529,3.055,18.275,2.498,26.763-2.362    c15.505-8.879,20.934-28.747,12.127-44.377C167.124,88.687,156.679,82.807,145.801,82.463z" fill="#59C230"/>
<path d="M467.112,502.08l-274.12-186.679c-40.285-27.435-45.772-85.091-11.395-119.746l0,0    c34.377-34.655,91.57-29.124,118.785,11.487l185.181,276.337C493.745,495.689,479.224,510.328,467.112,502.08z" fill="#FF9000"/>
<path d="M224.847,32.395c2.921,1.772,6.722,0.279,7.474-3.054c1.82-8.056,7.139-15.228,15.106-19.072    c13.85-6.683,30.452-0.783,37.081,13.179c4.359,9.18,3.321,19.559-1.838,27.492c-1.999,3.074-0.056,7.152,3.579,7.638    c8.997,1.201,17.231,6.813,21.443,15.682c6.63,13.962,0.777,30.698-13.073,37.381c-9.937,4.795-21.286,3.109-29.355-3.382    c-2.612-2.101-6.564-0.984-7.724,2.16c-2.424,6.568-7.278,12.232-14.044,15.497c-13.85,6.683-30.452,0.783-37.081-13.179    c-3.551-7.478-3.518-15.751-0.595-22.849c1.106-2.687-0.376-5.777-3.163-6.602c-7.304-2.162-13.703-7.321-17.249-14.788    c-6.63-13.962-0.777-30.698,13.073-37.381C207.242,26.889,217.104,27.696,224.847,32.395z" fill="#59C230"/>
<g>
<path d="M124.004,145.663c-2.917-1.045-6.044,0.727-6.64,3.767c-1.756,8.965-7.225,17.136-15.725,22.003     c-3.483,1.995-7.178,3.259-10.914,3.852c6.957,1.097,14.315-0.074,20.914-3.852c8.5-4.868,13.969-13.039,15.725-22.003     c0.192-0.981,0.651-1.828,1.279-2.493C127.068,146.627,125.516,146.205,124.004,145.663z" fill="#4EB229"/>
<path d="M62.055,66.917c2.473,1.387,5.34,0.495,6.71-1.595c-5.462-2.294-11.505-3.059-17.45-2.116     C55.073,63.8,58.716,65.044,62.055,66.917z" fill="#4EB229"/>
<path d="M172.893,98.924c-5.769-10.238-16.214-16.117-27.092-16.461c-3.532-0.112-5.745-3.791-4.343-7.034     c3.923-9.074,3.708-19.832-1.515-29.101c-6.829-12.119-20.211-18.126-33.107-16.077c9.39,1.48,18.048,7.099,23.107,16.077     c5.223,9.269,5.438,20.027,1.515,29.101c-1.403,3.243,0.811,6.922,4.343,7.034c10.878,0.344,21.323,6.224,27.092,16.461     c8.807,15.63,3.378,35.498-12.127,44.377c-3.484,1.995-7.18,3.253-10.917,3.846c6.958,1.1,14.317-0.067,20.916-3.846     C176.271,134.423,181.7,114.555,172.893,98.924z" fill="#4EB229"/>
</g>
<g>
<path d="M255.265,108.258c-2.611-2.101-6.564-0.984-7.724,2.16c-2.424,6.568-7.278,12.232-14.044,15.497     c-2.275,1.098-4.624,1.849-6.99,2.288c5.567,1.028,11.494,0.364,16.989-2.288c6.766-3.265,11.62-8.929,14.044-15.497     c0.053-0.144,0.118-0.279,0.183-0.415C256.878,109.463,256.052,108.89,255.265,108.258z" fill="#4EB229"/>
<path d="M214.848,32.395c2.458,1.492,5.533,0.664,6.896-1.621c-5.029-2.243-10.692-2.976-16.258-1.947     C208.789,29.438,211.965,30.646,214.848,32.395z" fill="#4EB229"/>
<path d="M307.692,74.258c-4.211-8.869-12.446-14.48-21.443-15.682c-3.635-0.485-5.578-4.564-3.579-7.638     c5.159-7.933,6.197-18.312,1.838-27.492c-5.541-11.669-18.047-17.7-30.091-15.467c8.464,1.563,16.093,7.045,20.092,15.467     c4.359,9.18,3.321,19.559-1.838,27.492c-1.999,3.074-0.056,7.152,3.579,7.638c8.997,1.201,17.231,6.813,21.443,15.682     c6.63,13.962,0.777,30.698-13.073,37.381c-2.279,1.1-4.634,1.843-7.005,2.281c5.571,1.034,11.503,0.374,17.004-2.281     C308.47,104.956,314.322,88.22,307.692,74.258z" fill="#4EB229"/>
</g>
<path d="M464.591,479.54l-187.07-216.56c-27.492-31.826-19.386-81.027,16.835-102.186l0,0    c36.221-21.159,82.597-3.783,96.317,36.088l93.359,271.301C488.157,480.171,472.857,489.108,464.591,479.54z" fill="#FF9000"/>
<path d="M484.032,468.183l-93.359-271.302c-10.888-31.641-42.341-49.091-72.965-44.381    c23.405,3.607,44.461,19.666,52.966,44.381l93.359,271.302c1.257,3.654,0.704,7.02-0.899,9.67l1.457,1.686    C472.857,489.108,488.157,480.171,484.032,468.183z" fill="#F88000"/>
</g>
<g>
<g>
<path d="M95.747,183.198c-3.525,0-7.072-0.476-10.564-1.437c-10.285-2.834-18.845-9.535-24.105-18.87     c-4.758-8.445-6.29-18.09-4.426-27.498c-0.102,0.001-0.201,0.002-0.303,0.002c-14.215,0-27.518-7.686-34.619-20.289     c-10.809-19.182-4.109-43.66,14.934-54.567c11.059-6.332,24.104-6.97,35.589-1.895c1.22-12.907,8.618-24.565,19.937-31.048     c9.224-5.281,19.938-6.638,30.177-3.818c10.285,2.834,18.845,9.535,24.105,18.87c5.672,10.064,6.743,21.766,3.085,32.586     c12.555,1.496,23.545,8.795,29.864,20.011c10.81,19.182,4.111,43.661-14.934,54.567c-9.263,5.304-20.194,6.627-30.393,3.754     c-2.757,10.289-9.472,19.073-18.734,24.378C109.283,181.421,102.556,183.198,95.747,183.198z M59.893,120.224     c3.688,0,7.206,1.632,9.588,4.499c2.646,3.183,3.545,7.462,2.401,11.446c-1.881,6.555-1.077,13.431,2.264,19.359     c3.284,5.828,8.619,10.008,15.022,11.772c6.351,1.75,13.008,0.908,18.739-2.374c6.28-3.596,10.688-9.77,12.092-16.937     c0.705-3.594,2.929-6.689,6.101-8.492c3.174-1.804,6.976-2.129,10.427-0.893c6.784,2.43,14.257,1.768,20.508-1.81     c11.916-6.823,16.097-22.16,9.319-34.187c-4.306-7.643-12.08-12.371-20.796-12.647h-0.001c-4.104-0.131-7.87-2.28-10.072-5.75     c-2.234-3.521-2.577-7.916-0.917-11.756c3.169-7.328,2.745-15.508-1.164-22.444c-3.284-5.828-8.619-10.008-15.021-11.772     c-6.355-1.75-13.009-0.908-18.74,2.374c-7.788,4.46-12.605,12.858-12.571,21.916c0.017,4.504-2.28,8.55-6.145,10.824     c-3.891,2.288-8.584,2.329-12.546,0.107c-7.623-4.274-16.692-4.238-24.263,0.097c-11.916,6.824-16.098,22.16-9.321,34.187     c4.817,8.549,14.2,13.471,23.897,12.539C59.095,120.243,59.495,120.224,59.893,120.224z M146.033,74.968c0.002,0,0.005,0,0.007,0     C146.038,74.968,146.035,74.968,146.033,74.968L146.033,74.968z"/>
</g>
<g>
<path d="M474.65,512.004c-4.025,0-8.094-1.229-11.768-3.729L188.767,321.596c-21.026-14.316-34.489-37.121-36.936-62.569     c-2.452-25.505,6.454-50.528,24.433-68.655c16.022-16.158,37.309-25.057,59.942-25.057c13.745,0,27.417,3.381,39.538,9.777     c3.664,1.932,5.066,6.469,3.133,10.132c-1.932,3.662-6.467,5.07-10.132,3.133c-9.971-5.261-21.222-8.042-32.538-8.042     c-18.602,0-36.107,7.323-49.291,20.62c-14.832,14.953-22.177,35.603-20.153,56.658c2.018,20.997,13.116,39.806,30.447,51.606     l274.115,186.678c3.621,2.466,6.472,0.107,7.259-0.674c0.818-0.812,3.29-3.757,0.747-7.552l-3.1-4.631     c-2.304-3.442-1.382-8.1,2.059-10.405c3.443-2.304,8.1-1.382,10.405,2.059l3.099,4.63c5.666,8.458,4.58,19.374-2.643,26.543     C485.046,509.921,479.886,512.004,474.65,512.004z"/>
</g>
<g>
<path d="M181.591,203.154c-1.888,0-3.777-0.708-5.236-2.131l-52.313-51.026c-2.965-2.892-3.023-7.64-0.132-10.606     c2.89-2.963,7.638-3.026,10.606-0.132l52.313,51.026c2.965,2.892,3.023,7.64,0.132,10.606     C185.491,202.398,183.542,203.154,181.591,203.154z"/>
</g>
<g>
<path d="M231.514,136.18c-3.932,0-7.877-0.67-11.697-2.016c-8.933-3.149-16.101-9.617-20.181-18.21     c-3.919-8.254-4.503-17.715-1.699-26.355c-8.441-3.231-15.39-9.632-19.308-17.886c-8.381-17.651-0.94-38.893,16.588-47.352     c9.783-4.721,21.032-4.648,30.68,0.071c2.99-9.178,9.508-16.693,18.267-20.92c8.488-4.094,18.052-4.625,26.935-1.494     c8.932,3.149,16.1,9.617,20.18,18.211c4.829,10.169,4.607,21.722-0.458,31.578c10.328,2.476,19.006,9.47,23.641,19.232     c8.382,17.651,0.941,38.894-16.588,47.353c-11.13,5.373-24.361,4.402-34.598-2.314c-3.463,7.251-9.237,13.072-16.526,16.59     C241.913,135.003,236.725,136.18,231.514,136.18z M210.482,35.864c-2.98,0-5.966,0.666-8.747,2.008     c-10.126,4.886-14.414,17.182-9.557,27.41c2.487,5.238,7.081,9.179,12.603,10.814c3.362,0.996,6.162,3.387,7.679,6.562     c1.517,3.172,1.623,6.847,0.29,10.086c-2.224,5.398-2.065,11.513,0.435,16.777c2.354,4.959,6.481,8.687,11.618,10.497     c5.09,1.795,10.568,1.489,15.429-0.857c4.772-2.302,8.418-6.329,10.267-11.339c1.383-3.744,4.512-6.617,8.374-7.684     c3.849-1.064,7.993-0.213,11.088,2.277c6.132,4.933,14.329,5.881,21.394,2.471c10.127-4.886,14.414-17.183,9.558-27.41     c-2.975-6.267-8.831-10.553-15.661-11.466c-4.295-0.573-7.938-3.263-9.745-7.194c-1.791-3.898-1.466-8.372,0.871-11.965     c3.958-6.086,4.463-13.632,1.351-20.186c-2.354-4.959-6.48-8.687-11.617-10.498c-5.091-1.794-10.567-1.488-15.429,0.857     c-5.632,2.718-9.66,7.809-11.051,13.97c-0.874,3.871-3.575,7.107-7.223,8.658c-3.706,1.573-7.991,1.26-11.456-0.844     c-0.001,0-0.001,0-0.002-0.001C217.728,36.851,214.11,35.864,210.482,35.864z"/>
</g>
<g>
<path d="M473.05,491.112c-5.256,0-10.356-2.289-14.141-6.67c0-0.001,0-0.001,0-0.001l-187.07-216.559     c-14.592-16.892-20.853-39.247-17.18-61.33c3.66-22.003,16.747-41.042,35.907-52.233c19.143-11.182,42.031-13.175,62.793-5.471     c20.916,7.762,37.099,24.38,44.399,45.594l93.359,271.301c3.02,8.777-0.474,18.129-8.497,22.744     C479.552,490.252,476.272,491.112,473.05,491.112z M470.26,474.636c1.836,2.126,3.848,1.442,4.882,0.849     c0.87-0.5,2.786-1.975,1.793-4.862l-93.359-271.301c-5.832-16.948-18.748-30.22-35.435-36.413     c-16.531-6.135-34.76-4.547-50.007,4.36c-15.3,8.937-25.752,24.152-28.679,41.744c-2.939,17.673,2.067,35.556,13.736,49.065     L470.26,474.636L470.26,474.636z"/>
</g>
<g>
<path d="M294.36,168.296c-2.562,0-5.058-1.313-6.46-3.678l-31.748-53.596c-2.11-3.563-0.933-8.164,2.631-10.275     c3.564-2.109,8.164-0.934,10.275,2.631l31.748,53.596c2.11,3.563,0.933,8.164-2.631,10.275     C296.976,167.958,295.659,168.296,294.36,168.296z"/>
</g>
</g>
</g>
</svg>