<?xml version="1.0" encoding="iso-8859-1"?>
<!-- Uploaded to: SVG Repo, www.svgrepo.com, Generator: SVG Repo Mixer Tools -->
<svg height="800px" width="800px" version="1.1" id="Layer_1" xmlns="http://www.w3.org/2000/svg" xmlns:xlink="http://www.w3.org/1999/xlink" 
	 viewBox="0 0 512 512" xml:space="preserve">
<g transform="translate(1 1)">
	<g>
		<path style="fill:#FFDD09;" d="M428.559,129.169v26.034h-22.563c-13.885,0-26.902-7.81-31.241-20.827
			c0-0.868-0.868-2.603-0.868-3.471l-6.075-27.77l27.77,6.075C407.732,110.946,425.956,117.02,428.559,129.169"/>
		<path style="fill:#FFDD09;" d="M428.559,215.949v26.034h-22.563c-13.885,0-26.902-7.81-31.241-20.827
			c0-0.868-0.868-2.603-0.868-3.471l-6.075-27.77l27.77,6.075C407.732,197.725,425.956,203.8,428.559,215.949"/>
		<path style="fill:#FFDD09;" d="M428.559,302.729v26.034h-22.563c-13.885,0-26.902-7.81-31.241-20.827
			c0-0.868-0.868-2.603-0.868-3.471l-6.075-27.769l27.77,6.075C407.732,284.505,425.956,290.58,428.559,302.729"/>
		<path style="fill:#FFDD09;" d="M255,71.027v23.431l-21.695-3.471c-20.827-2.603-41.654-23.431-44.258-44.258l-3.471-21.695
			l23.431,1.736C229.834,29.373,252.397,50.2,255,71.027"/>
		<path style="fill:#FFDD09;" d="M255,166.485v23.431l-21.695-3.471c-20.827-2.603-41.654-23.431-44.258-44.258l-3.471-21.695
			l23.431,1.736C229.834,124.831,252.397,145.658,255,166.485"/>
		<path style="fill:#FFDD09;" d="M255,261.942v23.431l-21.695-3.471c-20.827-2.603-41.654-23.431-44.258-44.258l-3.471-21.695
			l23.431,1.736C229.834,220.288,252.397,241.115,255,261.942"/>
		<path style="fill:#FFDD09;" d="M255,71.027v23.431l21.695-3.471c20.827-2.603,41.654-23.431,44.258-44.258l3.471-21.695
			l-23.431,1.736C280.166,29.373,257.603,50.2,255,71.027"/>
	</g>
	<path style="fill:#FD9808;" d="M307.068,25.902l-3.471,20.827c-2.603,20.827-23.431,41.654-44.258,44.258L255,91.854v2.603
		l21.695-3.471c20.827-2.603,41.654-23.431,44.258-44.258l3.471-21.695L307.068,25.902z"/>
	<path style="fill:#FFDD09;" d="M255,166.485v23.431l21.695-3.471c20.827-2.603,41.654-23.431,44.258-44.258l3.471-21.695
		l-23.431,1.736C280.166,124.831,257.603,145.658,255,166.485"/>
	<path style="fill:#FD9808;" d="M307.068,121.359l-3.471,20.827c-2.603,20.827-23.431,41.654-44.258,44.258L255,187.312v2.603
		l21.695-3.471c20.827-2.603,41.654-23.431,44.258-44.258l3.471-21.695L307.068,121.359z"/>
	<path style="fill:#FFDD09;" d="M255,261.942v23.431l21.695-3.471c20.827-2.603,41.654-23.431,44.258-44.258l3.471-21.695
		l-23.431,1.736C280.166,220.288,257.603,241.115,255,261.942"/>
	<path style="fill:#FD9808;" d="M307.068,216.817l-3.471,20.827c-2.603,20.827-23.431,41.654-44.258,44.258L255,282.77v2.603
		l21.695-3.471c20.827-2.603,41.654-23.431,44.258-44.258l3.471-21.695L307.068,216.817z"/>
	<path style="fill:#FFDD09;" d="M428.559,129.169v26.034h22.563c13.885,0,26.902-7.81,31.241-20.827
		c0-0.868,0.868-2.603,0.868-3.471l6.075-27.77l-27.77,6.075C449.386,110.946,431.163,117.02,428.559,129.169"/>
	<path style="fill:#FD9808;" d="M471.081,106.607l-5.207,23.431c0,0.868-0.868,2.603-0.868,3.471
		c-4.339,13.017-17.356,20.827-31.241,20.827h17.356c13.885,0,26.902-7.81,31.241-20.827c0-0.868,0.868-2.603,0.868-3.471
		l6.075-26.902L471.081,106.607z"/>
	<path style="fill:#FFDD09;" d="M428.559,215.949v26.034h22.563c13.885,0,26.902-7.81,31.241-20.827
		c0-0.868,0.868-2.603,0.868-3.471l6.075-27.77l-27.77,6.075C449.386,197.725,431.163,203.8,428.559,215.949"/>
	<path style="fill:#FD9808;" d="M471.081,193.386l-5.207,23.431c0,0.868-0.868,2.603-0.868,3.471
		c-4.339,13.017-17.356,20.827-31.241,20.827h17.356c13.885,0,26.902-7.81,31.241-20.827c0-0.868,0.868-2.603,0.868-3.471
		l6.075-26.902L471.081,193.386z"/>
	<path style="fill:#FFDD09;" d="M428.559,302.729v26.034h22.563c13.885,0,26.902-7.81,31.241-20.827
		c0-0.868,0.868-2.603,0.868-3.471l6.075-27.769l-27.77,6.075C449.386,284.505,431.163,290.58,428.559,302.729"/>
	<path style="fill:#FD9808;" d="M471.081,280.166l-5.207,23.43c0,0.868-0.868,2.603-0.868,3.471
		c-4.339,13.017-17.356,20.827-31.241,20.827h17.356c13.885,0,26.902-7.81,31.241-20.827c0-0.868,0.868-2.603,0.868-3.471
		l6.075-26.902L471.081,280.166z"/>
	<path style="fill:#FFDD09;" d="M81.441,129.169v26.034h22.563c13.885,0,26.902-7.81,31.241-20.827c0-0.868,0.868-2.603,0.868-3.471
		l6.075-27.77l-27.769,6.075C102.268,110.946,84.044,117.02,81.441,129.169"/>
	<path style="fill:#FD9808;" d="M123.963,106.607l-5.207,23.431c0,0.868-0.868,2.603-0.868,3.471
		c-4.339,13.017-17.356,20.827-31.241,20.827h17.356c13.885,0,26.902-7.81,31.241-20.827c0-0.868,0.868-2.603,0.868-3.471
		l6.075-26.902L123.963,106.607z"/>
	<path style="fill:#FFDD09;" d="M81.441,215.949v26.034h22.563c13.885,0,26.902-7.81,31.241-20.827c0-0.868,0.868-2.603,0.868-3.471
		l6.075-27.77l-27.769,6.075C102.268,197.725,84.044,203.8,81.441,215.949"/>
	<path style="fill:#FD9808;" d="M123.963,193.386l-5.207,23.431c0,0.868-0.868,2.603-0.868,3.471
		c-4.339,13.017-17.356,20.827-31.241,20.827h17.356c13.885,0,26.902-7.81,31.241-20.827c0-0.868,0.868-2.603,0.868-3.471
		l6.075-26.902L123.963,193.386z"/>
	<path style="fill:#FFDD09;" d="M81.441,302.729v26.034h22.563c13.885,0,26.902-7.81,31.241-20.827c0-0.868,0.868-2.603,0.868-3.471
		l6.075-27.769l-27.769,6.075C102.268,284.505,84.044,290.58,81.441,302.729"/>
	<path style="fill:#FD9808;" d="M123.963,280.166l-5.207,23.43c0,0.868-0.868,2.603-0.868,3.471
		c-4.339,13.017-17.356,20.827-31.241,20.827h17.356c13.885,0,26.902-7.81,31.241-20.827c0-0.868,0.868-2.603,0.868-3.471
		l6.075-26.902L123.963,280.166z"/>
	<path style="fill:#FFDD09;" d="M81.441,129.169v26.034H58.878c-13.885,0-26.902-7.81-31.241-20.827
		c0-0.868-0.868-2.603-0.868-3.471l-6.075-27.77l27.769,6.075C60.614,110.946,78.837,117.02,81.441,129.169"/>
	<path style="fill:#FFFFFF;" d="M38.919,106.607l5.207,23.431c0,0.868,0.868,2.603,0.868,3.471
		c4.339,13.017,17.356,20.827,31.241,20.827H58.878c-13.885,0-26.902-7.81-31.241-20.827c0-0.868-0.868-2.603-0.868-3.471
		l-6.075-26.902L38.919,106.607z"/>
	<path style="fill:#FFDD09;" d="M81.441,215.949v26.034H58.878c-13.885,0-26.902-7.81-31.241-20.827
		c0-0.868-0.868-2.603-0.868-3.471l-6.075-27.77l27.769,6.075C60.614,197.725,78.837,203.8,81.441,215.949"/>
	<path style="fill:#FFFFFF;" d="M38.919,193.386l5.207,23.431c0,0.868,0.868,2.603,0.868,3.471
		c4.339,13.017,17.356,20.827,31.241,20.827H58.878c-13.885,0-26.902-7.81-31.241-20.827c0-0.868-0.868-2.603-0.868-3.471
		l-6.075-26.902L38.919,193.386z"/>
	<path style="fill:#FFDD09;" d="M81.441,302.729v26.034H58.878c-13.885,0-26.902-7.81-31.241-20.827
		c0-0.868-0.868-2.603-0.868-3.471l-6.075-27.769l27.769,6.075C60.614,284.505,78.837,290.58,81.441,302.729"/>
	<path style="fill:#FFFFFF;" d="M38.919,280.166l5.207,23.43c0,0.868,0.868,2.603,0.868,3.471
		c4.339,13.017,17.356,20.827,31.241,20.827H58.878c-13.885,0-26.902-7.81-31.241-20.827c0-0.868-0.868-2.603-0.868-3.471
		l-6.075-26.902L38.919,280.166z"/>
	<path d="M81.441,163.881H58.878c-18.224,0-33.844-11.281-39.051-26.902c-0.868-1.736-0.868-2.603-0.868-4.339l-6.942-27.769
		c-0.868-2.603,0-6.075,2.603-7.81c2.603-1.736,5.207-2.603,7.81-2.603l27.769,6.075c16.488,3.471,36.447,10.414,39.919,26.902
		c0,0.868,0,0.868,0,1.736v26.034C90.119,160.41,86.647,163.881,81.441,163.881z M31.976,114.417l3.471,13.885
		c0,0.868,0,1.736,0.868,2.603c2.603,8.678,12.149,15.62,22.563,15.62h13.885v-16.488c-1.736-5.207-12.149-10.414-26.034-13.017
		L31.976,114.417z"/>
	<path d="M20.695,111.814c-2.603,0-4.339-0.868-6.075-2.603l-8.678-8.678c-3.471-3.471-3.471-8.678,0-12.149
		c3.471-3.471,8.678-3.471,12.149,0l8.678,8.678c3.471,3.471,3.471,8.678,0,12.149C25.034,110.946,23.298,111.814,20.695,111.814z"
		/>
	<path d="M104.003,163.881H81.441c-5.207,0-8.678-3.471-8.678-8.678v-26.034c0-0.868,0-0.868,0-1.736
		c3.471-16.488,23.431-23.431,39.919-26.902l27.769-6.075c2.603-0.868,6.075,0,7.81,2.603c1.736,1.736,2.603,5.207,2.603,7.81
		l-6.075,27.769c0,1.736-0.868,2.603-0.868,4.339C137.847,152.6,122.227,163.881,104.003,163.881z M90.119,146.525h13.885
		c10.414,0,19.959-6.075,22.563-15.62c0-0.868,0.868-1.736,0.868-2.603l3.471-14.753l-14.753,3.471
		c-13.885,2.603-24.298,7.81-26.034,13.017V146.525z"/>
	<path d="M142.186,111.814c-2.603,0-4.339-0.868-6.075-2.603c-3.471-3.471-3.471-8.678,0-12.149l8.678-8.678
		c3.471-3.471,8.678-3.471,12.149,0c3.471,3.471,3.471,8.678,0,12.149l-8.678,8.678C146.525,110.946,144.79,111.814,142.186,111.814
		z"/>
	<path d="M81.441,250.661H58.878c-18.224,0-33.844-11.281-39.051-26.902c-0.868-1.736-0.868-2.603-0.868-4.339l-6.942-27.769
		c-0.868-2.603,0-6.075,2.603-7.81c2.603-1.736,5.207-2.603,7.81-2.603l27.769,6.075c16.488,3.471,36.447,10.414,39.919,26.902
		c0,0.868,0,0.868,0,1.736v26.034C90.119,247.19,86.647,250.661,81.441,250.661z M31.976,201.197l3.471,13.885
		c0,0.868,0,1.736,0.868,2.603c2.603,8.678,12.149,15.62,22.563,15.62h13.885v-16.488c-1.736-5.207-12.149-10.414-26.034-13.017
		L31.976,201.197z"/>
	<path d="M20.695,198.593c-2.603,0-4.339-0.868-6.075-2.603l-8.678-8.678c-3.471-3.471-3.471-8.678,0-12.149
		c3.471-3.471,8.678-3.471,12.149,0l8.678,8.678c3.471,3.471,3.471,8.678,0,12.149C25.034,197.725,23.298,198.593,20.695,198.593z"
		/>
	<path d="M104.003,250.661H81.441c-5.207,0-8.678-3.471-8.678-8.678v-26.034c0-0.868,0-0.868,0-1.736
		c3.471-16.488,23.431-23.431,39.919-26.902l27.769-6.075c2.603-0.868,6.075,0,7.81,2.603c1.736,1.736,2.603,5.207,2.603,7.81
		l-6.075,27.77c0,1.736-0.868,2.603-0.868,4.339C137.847,239.38,122.227,250.661,104.003,250.661z M90.119,233.305h13.885
		c10.414,0,19.959-6.075,22.563-15.62c0-0.868,0.868-1.736,0.868-2.603l3.471-14.753l-14.753,3.471
		c-13.885,2.603-24.298,7.81-26.034,13.017V233.305z"/>
	<path d="M142.186,198.593c-2.603,0-4.339-0.868-6.075-2.603c-3.471-3.471-3.471-8.678,0-12.149l8.678-8.678
		c3.471-3.471,8.678-3.471,12.149,0c3.471,3.471,3.471,8.678,0,12.149l-8.678,8.678C146.525,197.725,144.79,198.593,142.186,198.593
		z"/>
	<path d="M81.441,337.441H58.878c-18.224,0-33.844-11.281-39.051-26.902c-0.868-1.736-0.868-2.603-0.868-4.339l-6.942-27.77
		c-0.868-2.603,0-6.075,2.603-7.81c2.603-1.736,5.207-2.603,7.81-2.603l27.769,6.075c16.488,3.471,36.447,10.414,39.919,26.902
		c0,0.868,0,0.868,0,1.736v26.034C90.119,333.969,86.647,337.441,81.441,337.441z M31.976,287.976l3.471,13.885
		c0,0.868,0,1.736,0.868,2.603c2.603,8.678,12.149,15.62,22.563,15.62h13.885v-16.488c-1.736-5.207-12.149-10.414-26.034-13.017
		L31.976,287.976z"/>
	<path d="M20.695,285.373c-2.603,0-4.339-0.868-6.075-2.603l-8.678-8.678c-3.471-3.471-3.471-8.678,0-12.149s8.678-3.471,12.149,0
		l8.678,8.678c3.471,3.471,3.471,8.678,0,12.149C25.034,284.505,23.298,285.373,20.695,285.373z"/>
	<path d="M104.003,337.441H81.441c-5.207,0-8.678-3.471-8.678-8.678v-26.034c0-0.868,0-0.868,0-1.736
		c3.471-16.488,23.431-23.431,39.919-26.902l27.769-6.075c2.603-0.868,6.075,0,7.81,2.603c1.736,1.736,2.603,5.207,2.603,7.81
		l-6.075,27.77c0,1.736-0.868,2.603-0.868,4.339C137.847,326.159,122.227,337.441,104.003,337.441z M90.119,320.085h13.885
		c10.414,0,19.959-6.075,22.563-15.62c0-0.868,0.868-1.736,0.868-2.603l3.471-14.753l-14.753,3.471
		c-13.885,2.603-24.298,7.81-26.034,13.017V320.085z"/>
	<path d="M142.186,285.373c-2.603,0-4.339-0.868-6.075-2.603c-3.471-3.471-3.471-8.678,0-12.149l8.678-8.678
		c3.471-3.471,8.678-3.471,12.149,0c3.471,3.471,3.471,8.678,0,12.149l-8.678,8.678C146.525,284.505,144.79,285.373,142.186,285.373
		z"/>
	<path d="M81.441,511c-5.207,0-8.678-3.471-8.678-8.678V68.424c0-5.207,3.471-8.678,8.678-8.678c5.207,0,8.678,3.471,8.678,8.678
		v433.898C90.119,507.529,86.647,511,81.441,511z"/>
	<path d="M428.559,163.881h-22.563c-18.224,0-33.844-11.281-39.051-26.902c-0.868-1.736-0.868-2.603-0.868-4.339l-6.942-27.769
		c-0.868-2.603,0-6.075,2.603-7.81c2.603-1.736,5.207-2.603,7.81-2.603l27.77,6.075c16.488,3.471,36.447,10.414,39.919,26.902
		c0,0.868,0,0.868,0,1.736v26.034C437.237,160.41,433.766,163.881,428.559,163.881z M379.095,114.417l3.471,13.885
		c0,0.868,0,1.736,0.868,2.603c2.603,8.678,12.149,15.62,22.563,15.62h13.885v-16.488c-1.736-5.207-12.149-10.414-26.034-13.017
		L379.095,114.417z"/>
	<path d="M367.814,111.814c-2.603,0-4.339-0.868-6.075-2.603l-8.678-8.678c-3.471-3.471-3.471-8.678,0-12.149
		c3.471-3.471,8.678-3.471,12.149,0l8.678,8.678c3.471,3.471,3.471,8.678,0,12.149C372.153,110.946,370.417,111.814,367.814,111.814
		z"/>
	<path d="M451.122,163.881h-22.563c-5.207,0-8.678-3.471-8.678-8.678v-26.034c0-0.868,0-0.868,0-1.736
		c3.471-16.488,23.431-23.431,39.919-26.902l27.77-6.075c2.603-0.868,6.075,0,7.81,2.603c1.736,1.736,2.603,5.207,2.603,7.81
		l-6.075,27.769c0,1.736-0.868,2.603-0.868,4.339C484.966,152.6,469.346,163.881,451.122,163.881z M437.237,146.525h13.885
		c10.414,0,19.959-6.075,22.563-15.62c0-0.868,0.868-1.736,0.868-2.603l3.471-14.753l-14.753,3.471
		c-13.885,2.603-24.298,7.81-26.034,13.017V146.525z"/>
	<path d="M489.305,111.814c-2.603,0-4.339-0.868-6.075-2.603c-3.471-3.471-3.471-8.678,0-12.149l8.678-8.678
		c3.471-3.471,8.678-3.471,12.149,0c3.471,3.471,3.471,8.678,0,12.149l-8.678,8.678
		C493.644,110.946,491.908,111.814,489.305,111.814z"/>
	<path d="M428.559,250.661h-22.563c-18.224,0-33.844-11.281-39.051-26.902c-0.868-1.736-0.868-2.603-0.868-4.339l-6.942-27.769
		c-0.868-2.603,0-6.075,2.603-7.81c2.603-1.736,5.207-2.603,7.81-2.603l27.77,6.075c16.488,3.471,36.447,10.414,39.919,26.902
		c0,0.868,0,0.868,0,1.736v26.034C437.237,247.19,433.766,250.661,428.559,250.661z M379.095,201.197l3.471,13.885
		c0,0.868,0,1.736,0.868,2.603c2.603,8.678,12.149,15.62,22.563,15.62h13.885v-16.488c-1.736-5.207-12.149-10.414-26.034-13.017
		L379.095,201.197z"/>
	<path d="M367.814,198.593c-2.603,0-4.339-0.868-6.075-2.603l-8.678-8.678c-3.471-3.471-3.471-8.678,0-12.149
		c3.471-3.471,8.678-3.471,12.149,0l8.678,8.678c3.471,3.471,3.471,8.678,0,12.149C372.153,197.725,370.417,198.593,367.814,198.593
		z"/>
	<path d="M451.122,250.661h-22.563c-5.207,0-8.678-3.471-8.678-8.678v-26.034c0-0.868,0-0.868,0-1.736
		c3.471-16.488,23.431-23.431,39.919-26.902l27.77-6.075c2.603-0.868,6.075,0,7.81,2.603c1.736,1.736,2.603,5.207,2.603,7.81
		l-6.075,27.77c0,1.736-0.868,2.603-0.868,4.339C484.966,239.38,469.346,250.661,451.122,250.661z M437.237,233.305h13.885
		c10.414,0,19.959-6.075,22.563-15.62c0-0.868,0.868-1.736,0.868-2.603l3.471-14.753l-14.753,3.471
		c-13.885,2.603-24.298,7.81-26.034,13.017V233.305z"/>
	<path d="M489.305,198.593c-2.603,0-4.339-0.868-6.075-2.603c-3.471-3.471-3.471-8.678,0-12.149l8.678-8.678
		c3.471-3.471,8.678-3.471,12.149,0c3.471,3.471,3.471,8.678,0,12.149l-8.678,8.678
		C493.644,197.725,491.908,198.593,489.305,198.593z"/>
	<path d="M428.559,337.441h-22.563c-18.224,0-33.844-11.281-39.051-26.902c-0.868-1.736-0.868-2.603-0.868-4.339l-6.942-27.77
		c-0.868-2.603,0-6.075,2.603-7.81c2.603-1.736,5.207-2.603,7.81-2.603l27.77,6.075c16.488,3.471,36.447,10.414,39.919,26.902
		c0,0.868,0,0.868,0,1.736v26.034C437.237,333.969,433.766,337.441,428.559,337.441z M379.095,287.976l3.471,13.885
		c0,0.868,0,1.736,0.868,2.603c2.603,8.678,12.149,15.62,22.563,15.62h13.885v-16.488c-1.736-5.207-12.149-10.414-26.034-13.017
		L379.095,287.976z"/>
	<path d="M367.814,285.373c-2.603,0-4.339-0.868-6.075-2.603l-8.678-8.678c-3.471-3.471-3.471-8.678,0-12.149s8.678-3.471,12.149,0
		l8.678,8.678c3.471,3.471,3.471,8.678,0,12.149C372.153,284.505,370.417,285.373,367.814,285.373z"/>
	<path d="M451.122,337.441h-22.563c-5.207,0-8.678-3.471-8.678-8.678v-26.034c0-0.868,0-0.868,0-1.736
		c3.471-16.488,23.431-23.431,39.919-26.902l27.77-6.075c2.603-0.868,6.075,0,7.81,2.603c1.736,2.603,2.603,5.207,2.603,7.81
		l-6.075,27.77c0,1.736-0.868,2.603-0.868,4.339C484.966,326.159,469.346,337.441,451.122,337.441z M437.237,320.085h13.885
		c10.414,0,19.959-6.075,22.563-15.62c0-0.868,0.868-1.736,0.868-2.603l3.471-14.753l-14.753,3.471
		c-13.885,2.603-24.298,7.81-26.034,13.017V320.085z"/>
	<path d="M489.305,285.373c-2.603,0-4.339-0.868-6.075-2.603c-3.471-3.471-3.471-8.678,0-12.149l8.678-8.678
		c3.471-3.471,8.678-3.471,12.149,0c3.471,3.471,3.471,8.678,0,12.149l-8.678,8.678
		C493.644,284.505,491.908,285.373,489.305,285.373z"/>
	<path d="M428.559,511c-5.207,0-8.678-3.471-8.678-8.678V68.424c0-5.207,3.471-8.678,8.678-8.678c5.207,0,8.678,3.471,8.678,8.678
		v433.898C437.237,507.529,433.766,511,428.559,511z"/>
	<path d="M255,103.136c-0.868,0-0.868,0-1.736,0l-21.695-3.471c-24.298-3.471-48.597-26.902-52.068-52.068l-2.603-20.827
		c0-2.603,0-5.207,1.736-6.942c2.603-2.603,5.207-3.471,7.81-3.471l23.431,1.736c26.034,3.471,50.332,27.769,53.803,52.068v0.868
		v23.431c0,2.603-0.868,5.207-2.603,6.942C259.339,102.268,256.736,103.136,255,103.136z M195.99,34.58l1.736,11.281
		c2.603,17.356,19.959,34.712,37.315,37.315l11.281,0.868V71.895c-2.603-16.488-20.827-33.844-38.183-36.447L195.99,34.58z"/>
	<path d="M255,103.136c-1.736,0-4.339-0.868-6.075-1.736c-1.736-1.736-2.603-4.339-2.603-6.942V71.027v-0.868
		c3.471-24.298,28.637-48.597,52.936-52.068l24.298-1.736c2.603,0,5.207,0.868,6.942,2.603c1.736,1.736,2.603,5.207,2.603,7.81
		l-3.471,21.695c-3.471,24.298-26.902,48.597-52.068,52.068l-20.827,2.603C255.868,103.136,255.868,103.136,255,103.136z
		 M263.678,71.895v13.017l11.281-1.736c17.356-2.603,34.712-19.959,37.315-37.315l1.736-11.281l-13.017,0.868
		C284.505,37.183,266.281,55.407,263.678,71.895z"/>
	<path d="M255,511c-5.207,0-8.678-3.471-8.678-8.678V7.678C246.322,2.471,249.793-1,255-1c5.207,0,8.678,3.471,8.678,8.678v494.644
		C263.678,507.529,260.207,511,255,511z"/>
	<path d="M185.576,33.712c-2.603,0-4.339-0.868-6.075-2.603l-8.678-8.678c-3.471-3.471-3.471-8.678,0-12.149
		c3.471-3.471,8.678-3.471,12.149,0l8.678,8.678c3.471,3.471,3.471,8.678,0,12.149C189.915,32.844,188.18,33.712,185.576,33.712z"/>
	<path d="M324.424,33.712c-2.603,0-4.339-0.868-6.075-2.603c-3.471-3.471-3.471-8.678,0-12.149l8.678-8.678
		c3.471-3.471,8.678-3.471,12.149,0s3.471,8.678,0,12.149l-8.678,8.678C328.763,32.844,327.027,33.712,324.424,33.712z"/>
	<path d="M255,198.593c-0.868,0-0.868,0-1.736,0l-21.695-3.471c-24.298-3.471-48.597-26.902-52.068-52.068l-2.603-20.827
		c0-2.603,0-5.207,1.736-6.942c1.736-1.736,4.339-2.603,6.942-2.603l23.431,1.736c26.034,3.471,50.332,27.769,53.803,52.068v0.868
		v22.563c0,2.603-0.868,5.207-2.603,6.942C259.339,197.725,256.736,198.593,255,198.593z M195.99,130.037l1.736,11.281
		c2.603,17.356,19.959,34.712,37.315,37.315l11.281,1.736v-13.017c-2.603-16.488-20.827-33.844-38.183-36.447L195.99,130.037z"/>
	<path d="M255,198.593c-1.736,0-4.339-0.868-6.075-1.736c-1.736-1.736-2.603-4.339-2.603-6.942v-23.431v-0.868
		c3.471-24.298,28.637-48.597,52.936-52.068l24.298-1.736c2.603,0,5.207,0.868,6.942,2.603c1.736,1.736,2.603,4.339,1.736,6.942
		l-3.471,21.695c-3.471,24.298-26.902,48.597-52.068,52.068l-19.959,3.471C255.868,198.593,255.868,198.593,255,198.593z
		 M263.678,167.353v13.017l11.281-1.736c17.356-2.603,34.712-19.959,37.315-37.315l1.736-11.281l-13.017,0.868
		C284.505,132.641,266.281,150.864,263.678,167.353z"/>
	<path d="M185.576,129.169c-2.603,0-4.339-0.868-6.075-2.603l-8.678-8.678c-3.471-3.471-3.471-8.678,0-12.149
		c3.471-3.471,8.678-3.471,12.149,0l8.678,8.678c3.471,3.471,3.471,8.678,0,12.149C189.915,128.302,188.18,129.169,185.576,129.169z
		"/>
	<path d="M324.424,129.169c-2.603,0-4.339-0.868-6.075-2.603c-3.471-3.471-3.471-8.678,0-12.149l8.678-8.678
		c3.471-3.471,8.678-3.471,12.149,0s3.471,8.678,0,12.149l-8.678,8.678C328.763,128.302,327.027,129.169,324.424,129.169z"/>
	<path d="M255,294.051c-0.868,0-0.868,0-1.736,0l-21.695-3.471c-24.298-3.471-48.597-26.902-52.068-52.068l-2.603-20.827
		c0-2.603,0-5.207,1.736-6.942c1.736-1.736,4.339-2.603,6.942-2.603l23.431,1.736c26.034,3.471,50.332,27.77,53.803,52.068v0.868
		v22.563c0,2.603-0.868,5.207-2.603,6.942C259.339,293.183,256.736,294.051,255,294.051z M195.99,225.495l1.736,11.281
		c2.603,17.356,19.959,34.712,37.315,37.315l11.281,1.736V262.81c-2.603-16.488-20.827-33.844-38.183-36.447L195.99,225.495z"/>
	<path d="M255,294.051c-1.736,0-4.339-0.868-6.075-1.736c-1.736-1.736-2.603-4.339-2.603-6.942v-23.431v-0.868
		c3.471-24.298,28.637-48.597,52.936-52.068l24.298-1.736c2.603,0,5.207,0.868,6.942,2.603c1.736,1.736,2.603,4.339,1.736,6.942
		l-3.471,21.695c-3.471,24.298-26.902,48.597-52.068,52.068l-19.959,3.471C255.868,294.051,255.868,294.051,255,294.051z
		 M263.678,262.81v13.017l11.281-1.736c17.356-2.603,34.712-19.959,37.315-37.315l1.736-11.281l-13.017,0.868
		C284.505,228.098,266.281,246.322,263.678,262.81z"/>
	<path d="M185.576,224.627c-2.603,0-4.339-0.868-6.075-2.603l-8.678-8.678c-3.471-3.471-3.471-8.678,0-12.149
		c3.471-3.471,8.678-3.471,12.149,0l8.678,8.678c3.471,3.471,3.471,8.678,0,12.149C189.915,223.759,188.18,224.627,185.576,224.627z
		"/>
	<path d="M324.424,224.627c-2.603,0-4.339-0.868-6.075-2.603c-3.471-3.471-3.471-8.678,0-12.149l8.678-8.678
		c3.471-3.471,8.678-3.471,12.149,0c3.471,3.471,3.471,8.678,0,12.149l-8.678,8.678
		C328.763,223.759,327.027,224.627,324.424,224.627z"/>
</g>
</svg>