<?xml version="1.0" encoding="iso-8859-1"?>
<!-- Uploaded to: SVG Repo, www.svgrepo.com, Generator: SVG Repo Mixer Tools -->
<!DOCTYPE svg PUBLIC "-//W3C//DTD SVG 1.1//EN" "http://www.w3.org/Graphics/SVG/1.1/DTD/svg11.dtd">
<svg fill="#000000" height="800px" width="800px" version="1.1" id="Capa_1" xmlns="http://www.w3.org/2000/svg" xmlns:xlink="http://www.w3.org/1999/xlink" 
	 viewBox="0 0 51.819 51.819" xml:space="preserve">
<path d="M33.654,26.856v22.963c0,1.104-0.896,2-2,2h-11.49c-1.104,0-2-0.896-2-2V26.856c0-0.942,0.653-1.726,1.529-1.938v-8.204
	c0-1.004,0.743-1.828,1.708-1.971V2c0-0.814,0.494-1.547,1.249-1.854c0.757-0.305,1.62-0.124,2.187,0.461l5.015,5.169
	c0.362,0.373,0.564,0.873,0.564,1.393v7.573c0.965,0.142,1.708,0.966,1.708,1.971v8.204C33.001,25.13,33.654,25.914,33.654,26.856z"
	/>
</svg>