<?xml version="1.0" encoding="utf-8"?>
<!-- Uploaded to: SVG Repo, www.svgrepo.com, Generator: SVG Repo Mixer Tools -->
<svg width="800px" height="800px" viewBox="0 0 1024 1024" class="icon"  version="1.1" xmlns="http://www.w3.org/2000/svg"><path d="M641.108868 200.064121V239.008623c0 51.92532 64.907162 207.703329 64.907162 246.647831v350.499497c0 21.501592-17.44291 38.944502-38.944502 38.944502H485.330859c-21.499544 0-38.944502-17.44291-38.944502-38.944502V485.656454c0-38.944502 64.907162-194.721487 64.907162-246.647831v-38.944502" fill="#FFFFFF" /><path d="M446.387381 511.619115h259.628649v207.703329H446.387381z" fill="#67DDE0" /><path d="M667.071528 888.081271H485.330859c-28.631929 0-51.92532-23.294415-51.92532-51.92532V485.656454c0-20.118323 13.716992-62.536868 29.595405-111.648551 16.550082-51.197338 35.312781-109.220919 35.312781-134.99928v-38.944502h25.96266V239.008623c0 29.873902-18.590686 87.37735-36.574208 142.98661-13.925864 43.083047-28.333979 87.631273-28.333978 103.661221v350.499497c0 14.319036 11.643624 25.96266 25.96266 25.96266h181.740669c14.319036 0 25.96266-11.643624 25.96266-25.96266V485.656454c0-16.029949-14.408114-60.578175-28.333978-103.661221C646.717712 326.386997 628.126002 268.882525 628.126002 239.008623v-38.944502h25.96266V239.008623c0 25.779385 18.762699 83.802966 35.312781 134.99928 15.878414 49.111683 29.595405 91.529205 29.595405 111.648551v350.499497c0.001024 28.630905-23.293391 51.92532-51.92532 51.92532z" fill="#4D5152" /><path d="M446.387381 498.637273h259.628649v25.96266H446.387381zM446.387381 706.340602h259.628649v25.96266H446.387381z" fill="#4D5152" /><path d="M511.294543 148.137777H641.108868c14.337466 0 25.96266 11.625194 25.96266 25.96266s-11.625194 25.96266-25.96266 25.96266H511.294543c-14.33849 0-25.96266-11.625194-25.96266-25.96266s11.62417-25.96266 25.96266-25.96266z" fill="#FFB957" /><path d="M641.108868 213.045963H511.294543c-21.474971 0-38.944502-17.469531-38.944502-38.944502s17.469531-38.944502 38.944502-38.944503H641.108868c21.474971 0 38.944502 17.469531 38.944502 38.944503s-17.469531 38.944502-38.944502 38.944502z m-129.814325-51.926344c-7.155935 0-12.981842 5.824884-12.981842 12.981842s5.824884 12.981842 12.981842 12.981842H641.108868c7.155935 0 12.981842-5.824884 12.981842-12.981842s-5.824884-12.981842-12.981842-12.981842H511.294543z" fill="#4D5152" /><path d="M186.757707 355.841106h233.66599v51.92532H186.757707zM420.423697 407.76745H186.757707l-77.889004 181.739645h233.667013z" fill="#FFFFFF" /><path d="M420.423697 407.76745l-77.887981 181.739645h155.776985zM342.535716 589.507095h155.776985v285.592334H342.535716z" fill="#ACF0F2" /><path d="M108.868703 589.507095h233.665989v285.592334H108.868703z" fill="#FFFFFF" /><path d="M511.294543 888.081271H95.887885V586.844993l82.313212-192.059385h250.780233l82.313213 192.059385v301.236278z m-389.443998-25.96266h363.480314V592.170221L411.867087 420.748268h-216.551746l-73.464796 171.420929v269.949414z" fill="#4D5152" /><path d="M433.405539 407.76745h-25.962661v-38.944502H199.739549v38.944502H173.776889v-64.907162h259.62865z" fill="#4D5152" /><path d="M303.591214 498.637273c0 21.501592-17.44291 38.944502-38.944502 38.944502-21.499544 0-38.944502-17.44291-38.944503-38.944502 0-21.499544 17.443934-38.944502 38.944503-38.944503 21.500568 0 38.944502 17.444958 38.944502 38.944503z" fill="#67DDE0" /><path d="M913.719359 719.322444c0 86.027869-69.749116 155.776985-155.776985 155.776985S602.164366 805.350313 602.164366 719.322444s69.749116-155.776985 155.776985-155.776985 155.778009 69.749116 155.778008 155.776985z" fill="#FFB957" /><path d="M757.941351 888.081271c-93.056842 0-168.758827-75.701985-168.758827-168.758827s75.701985-168.758827 168.758827-168.758827 168.758827 75.701985 168.758827 168.758827-75.700961 168.758827-168.758827 168.758827z m0-311.554994c-78.737805 0-142.796167 64.058361-142.796167 142.796167s64.058361 142.796167 142.796167 142.796167 142.796167-64.058361 142.796166-142.796167-64.057338-142.796167-142.796166-142.796167z" fill="#4D5152" /><path d="M744.960532 602.488937h25.962661v25.96266h-25.962661zM757.941351 836.154927v-25.962661c50.1069 0 90.869823-40.763946 90.869822-90.869822h25.96266c0.001024 64.418769-52.41269 116.832483-116.832482 116.832483zM173.776889 810.192266h103.851665v25.962661H173.776889zM108.868703 576.526277h233.665989v25.96266H108.868703z" fill="#4D5152" /><path d="M355.516534 875.099429h-25.96266V586.83885l78.940535-184.186731 23.858575 10.230662-76.83645 179.280273z" fill="#4D5152" /></svg>